<?xml version="1.0" standalone="no"?>
<!DOCTYPE svg PUBLIC "-//W3C//DTD SVG 20010904//EN"
 "http://www.w3.org/TR/2001/REC-SVG-20010904/DTD/svg10.dtd">
<svg version="1.0" xmlns="http://www.w3.org/2000/svg"
 width="2598.000000pt" height="2598.000000pt" viewBox="0 0 2598.000000 2598.000000"
 preserveAspectRatio="xMidYMid meet">
<metadata>
Created by potrace 1.11, written by Peter Selinger 2001-2013
</metadata>
<g transform="translate(0.000000,2598.000000) scale(0.100000,-0.100000)"
fill="#000000" stroke="none">
<path d="M12594 20501 c-65 -11 -145 -37 -209 -69 -52 -26 -125 -80 -125 -93
0 -4 -13 -21 -29 -38 -73 -78 -98 -247 -53 -362 12 -30 31 -65 42 -77 11 -12
20 -25 20 -29 0 -5 30 -38 66 -73 65 -64 111 -130 118 -167 3 -11 11 -44 20
-74 36 -118 46 -229 46 -490 l0 -257 -652 -5 c-638 -5 -700 -8 -938 -42 -251
-37 -411 -111 -534 -247 -67 -73 -86 -107 -115 -203 -44 -144 -52 -207 -61
-477 -8 -249 -22 -410 -39 -436 -4 -6 -52 -18 -106 -26 -214 -30 -319 -50
-565 -103 -140 -31 -289 -63 -330 -71 -41 -8 -210 -47 -375 -87 -165 -41 -340
-83 -390 -95 -49 -12 -168 -44 -264 -71 -96 -27 -181 -49 -189 -49 -38 0 -665
-207 -697 -230 -5 -4 -53 -22 -105 -40 -52 -18 -113 -41 -135 -52 -22 -10 -89
-40 -150 -65 -178 -74 -529 -243 -716 -345 -267 -146 -273 -150 -289 -163 -8
-7 -61 -40 -118 -74 -128 -77 -260 -164 -332 -219 -30 -23 -113 -85 -185 -138
-497 -370 -914 -833 -1158 -1284 -98 -181 -209 -443 -223 -527 -3 -15 -11 -48
-19 -73 -22 -70 -52 -225 -65 -333 -26 -204 -4 -557 47 -752 8 -33 17 -74 19
-92 4 -34 79 -244 113 -316 10 -23 38 -82 61 -132 84 -183 300 -515 428 -660
15 -16 52 -59 82 -95 30 -36 118 -128 195 -204 214 -212 394 -363 633 -531 62
-44 145 -103 185 -132 157 -114 597 -368 847 -488 63 -31 149 -73 190 -94 41
-21 104 -50 140 -64 36 -14 83 -35 105 -45 96 -47 518 -214 685 -271 159 -55
360 -121 410 -136 30 -9 114 -34 185 -57 177 -55 689 -185 895 -227 58 -11
202 -41 321 -66 118 -24 253 -49 300 -54 46 -5 138 -19 204 -30 278 -48 744
-96 1065 -111 118 -5 330 -16 470 -24 832 -48 1458 -46 2340 9 567 35 670 46
1570 176 41 5 199 35 350 66 151 30 301 59 332 64 32 5 173 38 315 74 142 35
281 70 308 76 28 7 113 31 190 55 77 23 174 52 215 64 67 19 168 52 415 136
168 58 626 237 650 255 6 4 48 23 95 42 163 67 617 299 772 395 29 18 130 81
223 138 94 58 181 115 195 128 14 12 57 44 95 71 187 130 409 312 578 475 64
61 265 266 448 456 182 189 337 344 343 344 6 0 58 -67 115 -148 141 -197 210
-264 342 -329 132 -65 197 -83 335 -90 134 -7 217 6 328 51 109 44 181 92 249
165 74 81 151 241 163 341 2 19 10 67 18 105 68 326 69 795 2 1032 -8 26 -17
60 -20 75 -3 14 -33 58 -65 97 -33 39 -63 81 -66 92 -13 39 5 85 55 144 28 33
60 84 71 115 92 246 101 728 19 1125 -11 54 -22 109 -25 124 -2 14 -18 62 -35
106 -74 191 -213 324 -387 369 -87 23 -459 23 -546 0 -163 -42 -243 -115 -456
-414 -84 -118 -156 -216 -160 -218 -3 -1 -166 149 -361 334 -476 451 -635 591
-879 774 -114 85 -600 400 -617 400 -4 0 -54 28 -113 63 -58 35 -133 76 -166
91 -33 15 -94 47 -135 71 -41 23 -86 46 -100 50 -14 4 -79 35 -145 67 -66 33
-165 78 -219 99 -55 22 -104 43 -110 48 -21 15 -551 221 -570 221 -7 0 -103
32 -212 70 -109 39 -206 70 -215 70 -9 0 -52 12 -95 26 -113 37 -454 134 -471
134 -8 0 -105 22 -216 49 -225 55 -397 92 -532 114 -49 8 -234 39 -410 69
-176 31 -383 66 -460 78 -77 12 -177 29 -222 37 l-83 15 0 277 c0 313 -10 402
-65 561 -40 118 -76 189 -118 238 -18 20 -47 55 -65 78 -17 23 -69 66 -114 96
-167 111 -287 138 -618 138 l-216 0 -22 568 c-13 312 -23 605 -23 652 1 156
-35 357 -73 415 -24 37 -94 72 -166 84 -94 15 -227 21 -286 12z m-4034 -6342
c58 -16 199 -84 271 -132 225 -149 380 -442 380 -721 0 -151 -26 -256 -101
-408 -65 -130 -209 -282 -355 -372 -37 -23 -176 -72 -262 -92 -76 -18 -245
-19 -323 -4 -83 17 -243 75 -290 105 -61 38 -184 140 -203 167 -8 13 -31 40
-51 61 -67 71 -143 236 -171 369 -33 157 -11 377 51 500 13 26 24 53 24 59 0
23 112 179 170 237 92 92 239 182 361 221 116 37 375 42 499 10z m3930 4 c198
-50 367 -165 497 -338 88 -118 114 -172 148 -311 84 -339 -42 -706 -312 -908
-172 -129 -342 -187 -548 -187 -229 0 -460 96 -623 260 -116 115 -223 314
-238 440 -3 25 -8 49 -10 53 -6 10 -6 229 1 287 5 52 19 96 48 166 61 140 117
223 215 316 89 86 179 141 312 194 79 32 111 39 195 44 139 8 239 3 315 -16z
m3935 1 c76 -17 207 -78 296 -137 168 -112 305 -314 358 -532 38 -152 26 -345
-29 -486 -44 -113 -93 -200 -140 -251 -27 -29 -50 -56 -50 -60 0 -4 -33 -33
-72 -65 -40 -32 -75 -61 -78 -64 -29 -37 -218 -113 -340 -139 -77 -15 -242
-14 -325 4 -174 37 -346 127 -460 241 -54 54 -163 209 -170 242 -2 10 -15 46
-29 81 -63 150 -75 349 -32 507 26 98 64 207 75 215 3 3 19 25 35 50 56 86
117 157 179 207 83 68 208 138 298 170 118 41 342 49 484 17z"/>
</g>
</svg>
